<?xml version="1.0" encoding="utf-8"?>
<!-- Generator: Adobe Illustrator 23.0.2, SVG Export Plug-In . SVG Version: 6.00 Build 0)  -->
<svg version="1.1" id="Layer_1" xmlns="http://www.w3.org/2000/svg" xmlns:xlink="http://www.w3.org/1999/xlink" x="0px" y="0px"
	 viewBox="0 0 800.2 389.1" style="enable-background:new 0 0 800.2 389.1;" xml:space="preserve">
<style type="text/css">
	.st0{fill:none;stroke:#000000;stroke-width:10;stroke-linecap:round;}
</style>
<path class="st0" d="M604.3,226.2c-24,7.7-46.7-14.5-71.4-19.7c-18.7-4-39.4,2.9-52,17.3c-7.1-38.7-10.9-77.9-11.3-117.2
	c-3.1,24.1-6.2,48.3-9.3,72.4c-1.4,11.2-3.5,23.6-12.4,30.7c-8.9,7.1-26.1,2.4-25.4-8.9c1.1,5.9,2.2,12.3-0.4,17.8
	c-2.7,5.4-10.8,8.3-14.9,3.8c-2.2-2.4-2.4-6-2.3-9.3c0.2-8.1,1.5-16.2,3.9-23.9c9-1.2,16,9.3,14.9,18.3c-1.1,9-7.4,16.4-13.4,23.1
	c-4.9,5.5-12.4,11.5-18.7,7.7c-3.5-2.1-4.8-6.4-6.4-10.2c-10.7-26.3-47.6-37.5-71.2-21.6c-10.4,7-18.1,19-17.5,31.6
	s11,24.7,23.6,24.9c3.5,0.1,7.1-0.8,9.8-3c4.4-3.8,5.1-10.2,5.2-16c0.6-23.1-1.9-46.3-7.2-68.9c-2.9-12.3-6.9-24.7-15-34.4
	s-21.1-16.2-33.4-13.3c-10,2.3-17.7,10-24.8,17.4c-17.6,18.4-36.2,40.9-32.3,66c2.7,17.9,17.1,32.5,33.9,39.2
	c16.8,6.7,35.6,6.5,53.4,3.4c3.1-0.5,6.6-1.4,8.4-4c1.5-2.2,1.4-5.1,1-7.7c-2.6-16.6-16.8-29.2-31.9-36.7
	c-15.1-7.4-31.9-11.1-47-18.5c-2-1-4.2-2.2-5.3-4.1c-1.3-2.3-0.9-5.2-0.2-7.7c4.3-15.9,20.9-27.5,37.3-26.1
	c-1.7,32.8-13.2,65-32.6,91.5"/>
<path class="st0" d="M649.8,250l-165,25.3c-79.7,18.7-161.7,27.4-243.5,25.9c-27.5-0.5-55.4-2.3-81.2-11.8s-49.5-27.8-59.7-53.4
	c-15.6-39,3.9-84.4,33.5-114.2c13.3-13.4,28.8-24.9,46.4-31.9c29.2-11.5,62.3-9.5,92.7-1.4c-2.1,72.8-4.2,145.6-6.3,218.3
	c-44.8-57.7-95-111.2-149.7-159.6"/>
<circle cx="627.6" cy="224.4" r="4.9"/>
<circle cx="649.8" cy="220.6" r="4.9"/>
</svg>
